# xmcd
#
# Track frame offsets:
#	150
#	14784
#	27747
#	44026
#	61050
#	78788
#	92908
#	107181
#	124620
#	137294
#	155504
#	172224
#	191341
#	224476
#	244560
#	257455
#	276071
#
# Disc length: 3892 seconds
#
# Revision: 1
# Processed by: cddbd v1.5.2PL0 Copyright (c) Steve Scherf et al.
# Submitted via: audiograbber 1.83.01
#
DISCID=ef0f3211
DTITLE=Various Artist - Juno Awards 2013
DYEAR=2013
DGENRE=Pop
TTITLE0=Carly Rae Jepson - Call Me Maybe
TTITLE1=Justin Bieber - Boyfriend
TTITLE2=Hedley - Kiss You Inside Out
TTITLE3=Marianas Trench - Desperate Measures
TTITLE4=Metric - Breathing Underwater
TTITLE5=Billy Talent - Surprise Surprise
TTITLE6=The Sheepdogs - Feeling Good
TTITLE7=Victoria Duffield - Shut Up and Dance
TTITLE8=DEADMAU5 (ft. Chris James) - The Veldt
TTITLE9=Johnny Reid - Dedicated to You
TTITLE10=Serena Ryder - Stompa
TTITLE11=Big Wreck - Albatross
TTITLE12=Rush - Headlong Flight
TTITLE13=Leonard Cohen - Darkness
TTITLE14=Celine Dion - Parler a mon Pere
TTITLE15=Walk Off The Earth - Somebody That I Used to Know
TTITLE16=Hey Ocean! - Big Blue Wave
EXTD=
EXTT0=
EXTT1=
EXTT2=
EXTT3=
EXTT4=
EXTT5=
EXTT6=
EXTT7=
EXTT8=
EXTT9=
EXTT10=
EXTT11=
EXTT12=
EXTT13=
EXTT14=
EXTT15=
EXTT16=
PLAYORDER=
